HIERARCHY
	ROOT pelvis
	{
		OFFSET 0 0 0 
		CHANNELS 6 Xposition Yposition Zposition Zrotation Xrotation Yrotation
		JOINT lfemur_phantom
		{
			OFFSET 0 0.0899607 0 
			CHANNELS 3 Zrotation Xrotation Yrotation
			JOINT lfemur
			{
				OFFSET 0 0 -0.426035 
				CHANNELS 3 Zrotation Xrotation Yrotation
				JOINT ltibia
				{
					OFFSET 0 0 -0.409933 
					CHANNELS 3 Zrotation Xrotation Yrotation
					JOINT lfoot
					{
						OFFSET 0.105631 0 0.00135511 
						CHANNELS 3 Zrotation Xrotation Yrotation
						End Site
						{
							OFFSET 0.0352103 0 0.000451703
						}
					}
				}
			}
		}
		JOINT rfemur_phantom
		{
			OFFSET 0 -0.0899607 0 
			CHANNELS 3 Zrotation Xrotation Yrotation
			JOINT rfemur
			{
				OFFSET 0 0 -0.430137 
				CHANNELS 3 Zrotation Xrotation Yrotation
				JOINT rtibia
				{
					OFFSET 0 0 -0.390377 
					CHANNELS 3 Zrotation Xrotation Yrotation
					JOINT rfoot
					{
						OFFSET 0.106801 0 -0.00121178 
						CHANNELS 3 Zrotation Xrotation Yrotation
						End Site
						{
							OFFSET 0.0356003 0 -0.000403927
						}
					}
				}
			}
		}
		JOINT lowerback_phantom
		{
			OFFSET -0.05 0 0.107967 
			CHANNELS 3 Zrotation Xrotation Yrotation
			JOINT lowerback
			{
				OFFSET 0.0167886 0 0.161801 
				CHANNELS 3 Zrotation Xrotation Yrotation
				JOINT upperback
				{
					OFFSET 0 0 0 
					CHANNELS 3 Zrotation Xrotation Yrotation
					JOINT lclavicle_phantom
					{
						OFFSET 0 0 0.199349 
						CHANNELS 3 Zrotation Xrotation Yrotation
						JOINT lclavicle
						{
							OFFSET 0 0.164108 -0.0174105 
							CHANNELS 3 Zrotation Xrotation Yrotation
							JOINT lhumerus
							{
								OFFSET 0 0 -0.275026 
								CHANNELS 3 Zrotation Xrotation Yrotation
								JOINT lradius
								{
									OFFSET 0 0 -0.248775 
									CHANNELS 3 Zrotation Xrotation Yrotation
									End Site
									{
										OFFSET 0 0 -0.082925
									}
								}
							}
						}
					}
					JOINT rclavicle_phantom
					{
						OFFSET 0 0 0.199349 
						CHANNELS 3 Zrotation Xrotation Yrotation
						JOINT rclavicle
						{
							OFFSET 0 -0.165322 -0.0298984 
							CHANNELS 3 Zrotation Xrotation Yrotation
							JOINT rhumerus
							{
								OFFSET 0 0 -0.273337 
								CHANNELS 3 Zrotation Xrotation Yrotation
								JOINT rradius
								{
									OFFSET 0 0 -0.254845 
									CHANNELS 3 Zrotation Xrotation Yrotation
									End Site
									{
										OFFSET 0 0 -0.0849483
									}
								}
							}
						}
					}
					JOINT LowerNeck_phantom
					{
						OFFSET 0 0 0.199349 
						CHANNELS 3 Zrotation Xrotation Yrotation
						JOINT LowerNeck
						{
							OFFSET -0.0127292 -0.000602123 0.105365 
							CHANNELS 3 Zrotation Xrotation Yrotation
							End Site
							{
								OFFSET -0.00424307 -0.000200708 0.0351217
							}
						}
					}
				}
			}
		}
	}
MOTION
Frames:	11
Frame Time:	0.0166667
0.0180179 0.892765 1.66533e-016 87.756 -53.4037 83.4275 21.0757 4.50986 0.588741 25.7272 1.52192 3.15491 -2.88484 -8.99625 27.1377 -3.73966e-006 2.39838e-006 9.57863 -4.9333 -6.5499 3.09838 -26.7087 -4.20549 8.29264 5.21864 8.40589 13.0032 -1.32133e-006 -4.43754e-009 28.6257 0.687409 1.35271 6.22855 0.0452939 0.829079 1.30338 -0 0 -0 -0.741405 -9.54468 -0.122945 10.6196 26.9459 -1.04806 -4.36964 -7.04792 -121.913 4.63614e-006 7.4765 -19.2377 4.17536 7.44415 -0.5419 4.94662 -33.254 5.8458 12.641 15.9881 -129.154 4.605e-006 -8.95439 -16.2189 3.07177 4.94168 33.5901 23.5953 -24.3548 -61.1511 
0.0180803 0.892774 -3.4e-005 87.7506 -53.4045 83.4261 21.0843 4.50904 0.587069 25.6909 1.52153 3.15922 -2.87577 -8.95033 27.1056 1.25521e-005 -2.1404e-006 9.65473 -4.89957 -6.54832 3.09831 -26.7414 -4.21405 8.29758 5.21845 8.40758 13.0092 9.38303e-007 -5.69428e-007 28.5964 0.684371 1.35105 6.21248 0.0719257 0.835417 1.30572 -0 0 -0 -0.765214 -9.54812 -0.126938 10.6341 26.9237 -1.0373 -4.38415 -7.07482 -121.901 -8.22175e-006 7.48115 -19.2919 4.18599 7.43636 -0.542721 4.95282 -33.2589 5.84288 12.632 15.9844 -129.14 7.72616e-006 -8.93689 -16.216 3.05846 4.96043 33.5775 23.5929 -24.3905 -61.1412 
0.0181633 0.892776 -8e-005 87.7483 -53.4083 83.4173 21.0754 4.51325 0.604917 25.7101 1.51981 3.15295 -2.88026 -8.96578 27.1079 -1.27279e-006 -7.23683e-008 9.64254 -4.88307 -6.54874 3.1121 -26.7652 -4.21768 8.29619 5.22282 8.41339 13.0052 -6.54678e-008 -4.3542e-007 28.6043 0.687202 1.3663 6.2041 0.0964448 0.821739 1.31574 -0 0 -0 -0.80647 -9.52836 -0.133508 10.6355 26.8861 -1.01886 -4.3812 -7.07183 -121.895 -5.41344e-006 7.53686 -19.2952 4.20604 7.43357 -0.545126 4.94063 -33.2705 5.84176 12.6426 15.9988 -129.14 -5.02373e-006 -8.92947 -16.2197 2.91502 5.11612 33.6612 23.8489 -24.6657 -61.3216 
0.0182381 0.892776 -0.000132 87.7417 -53.4047 83.4064 21.0743 4.5134 0.619324 25.7134 1.51855 3.14988 -2.88318 -8.97765 27.1129 -4.51896e-006 -1.5371e-006 9.61998 -4.87555 -6.55117 3.12359 -26.7778 -4.22083 8.29781 5.21976 8.40595 12.9978 8.2675e-007 3.96624e-007 28.5968 0.692362 1.37336 6.2003 0.106155 0.817315 1.32054 -0 0 -0 -0.833031 -9.51479 -0.137711 10.6249 26.8529 -1.00546 -4.38555 -7.08123 -121.886 2.19001e-005 7.56608 -19.2974 4.22785 7.43227 -0.547867 4.92911 -33.2831 5.84151 12.6537 16.0104 -129.145 -9.72546e-006 -8.92403 -16.2255 2.85865 5.16729 33.6749 23.9357 -24.7769 -61.3708 
0.0183131 0.892768 -0.000179 87.7306 -53.3963 83.3949 21.0802 4.50988 0.627843 25.7029 1.51858 3.15142 -2.88528 -8.98457 27.1135 -6.07135e-007 1.86757e-006 9.60147 -4.87263 -6.55578 3.12608 -26.7788 -4.22805 8.31141 5.21123 8.38743 12.9838 -1.58176e-006 7.75906e-008 28.5824 0.69792 1.37867 6.19655 0.108897 0.810711 1.32377 -0 0 -0 -0.853038 -9.49981 -0.1408 10.5936 26.8245 -0.990279 -4.38402 -7.08105 -121.878 -2.62942e-006 7.58585 -19.2851 4.24724 7.43576 -0.550647 4.9149 -33.2981 5.84103 12.6727 16.0274 -129.16 -2.90603e-006 -8.91421 -16.2356 2.83674 5.18182 33.661 23.9586 -24.8164 -61.3791 
0.01839 0.892754 -0.000219 87.7162 -53.384 83.3826 21.0866 4.50418 0.630714 25.6855 1.52078 3.15841 -2.88676 -8.98687 27.1093 -1.36826e-006 -6.15434e-007 9.59417 -4.86139 -6.56102 3.12053 -26.7883 -4.24301 8.33696 5.20477 8.37105 12.9659 -1.41917e-007 -4.82443e-008 28.5671 0.695926 1.39093 6.18684 0.111703 0.788821 1.33464 -0 0 -0 -0.870226 -9.48204 -0.143371 10.5477 26.8063 -0.973339 -4.38178 -7.07885 -121.873 -1.51861e-006 7.58953 -19.2625 4.26169 7.44541 -0.553239 4.90274 -33.3142 5.83695 12.6946 16.0465 -129.178 -1.46837e-006 -8.90782 -16.2425 2.83126 5.20775 33.6471 23.9554 -24.8421 -61.4083 
0.0184672 0.892737 -0.000252 87.7036 -53.3679 83.375 21.0806 4.49788 0.62867 25.6777 1.52429 3.16679 -2.88816 -8.99008 27.107 -2.76062e-007 -1.79785e-006 9.5845 -4.84742 -6.56375 3.1069 -26.804 -4.26381 8.37158 5.1982 8.35409 12.9467 1.8714e-006 4.90762e-007 28.5512 0.686881 1.39756 6.17381 0.116313 0.772594 1.35008 -0 0 -0 -0.887553 -9.47032 -0.146047 10.5031 26.8012 -0.960903 -4.38601 -7.08734 -121.867 -1.16219e-005 7.5644 -19.263 4.26962 7.45362 -0.554881 4.89087 -33.3243 5.82525 12.7129 16.0651 -129.188 9.99141e-006 -8.89493 -16.2544 2.82757 5.23349 33.643 23.9319 -24.8576 -61.4706 
0.0185635 0.892718 -0.000304 87.6927 -53.3521 83.3636 21.097 4.49531 0.632886 25.6509 1.52515 3.17238 -2.89012 -8.99538 27.1054 5.97754e-006 4.2165e-007 9.57161 -4.8334 -6.5665 3.10019 -26.8212 -4.28456 8.40549 5.19378 8.34132 12.9296 -3.56802e-007 2.54716e-007 28.5362 0.689025 1.39175 6.17525 0.110913 0.769538 1.36032 -0 0 -0 -0.905742 -9.45888 -0.148861 10.4516 26.8021 -0.951322 -4.37575 -7.07305 -121.858 -1.05015e-005 7.56152 -19.271 4.27645 7.4612 -0.556333 4.87308 -33.3277 5.80403 12.7279 16.0846 -129.189 3.13258e-006 -8.88068 -16.2617 2.82176 5.26127 33.6321 23.8945 -24.8647 -61.5198 
0.0186691 0.8927 -0.00036 87.6833 -53.3343 83.3522 21.1175 4.49389 0.640107 25.6188 1.52454 3.17564 -2.89261 -9.00142 27.1021 4.69689e-006 -3.37711e-006 9.564 -4.82527 -6.56937 3.09745 -26.8341 -4.3034 8.43719 5.18964 8.32869 12.9115 3.57181e-007 -1.89359e-007 28.5217 0.696907 1.38388 6.18488 0.097632 0.770246 1.36137 -0 0 -0 -0.924753 -9.44568 -0.151776 10.3873 26.806 -0.935913 -4.34777 -7.03015 -121.848 6.36904e-006 7.59524 -19.2521 4.28362 7.46851 -0.557814 4.85341 -33.3265 5.78452 12.7352 16.0979 -129.183 1.11e-005 -8.87605 -16.2625 2.81349 5.29012 33.606 23.856 -24.8588 -61.5211 
0.0187835 0.892686 -0.000401 87.6741 -53.3128 83.339 21.1338 4.49402 0.648286 25.5815 1.52417 3.18019 -2.89341 -9.00232 27.0991 -4.96096e-006 -2.84348e-006 9.55899 -4.81736 -6.57132 3.10098 -26.8507 -4.32022 8.46363 5.18592 8.3155 12.8895 9.13339e-007 2.96913e-007 28.5133 0.696952 1.37261 6.20129 0.082946 0.773207 1.35345 -0 0 -0 -0.939987 -9.42485 -0.153939 10.3193 26.8084 -0.910623 -4.32871 -7.00101 -121.841 -6.06245e-006 7.62224 -19.2048 4.29499 7.47604 -0.55986 4.83532 -33.3235 5.77459 12.7359 16.1018 -129.178 3.26008e-007 -8.88141 -16.2562 2.79525 5.3316 33.5699 23.8259 -24.8652 -61.4823 
0.0188979 0.892673 -0.000424 87.6626 -53.2887 83.3288 21.1155 4.49058 0.654185 25.5723 1.52471 3.18262 -2.89273 -9.00056 27.0998 5.10771e-006 4.59757e-008 9.55231 -4.81746 -6.57514 3.09908 -26.8645 -4.33645 8.48988 5.1859 8.30751 12.8649 2.74393e-006 1.61147e-007 28.5116 0.681139 1.35701 6.21149 0.0741498 0.779904 1.34567 -0 0 -0 -0.951979 -9.39783 -0.155461 10.266 26.8034 -0.878004 -4.32949 -7.00319 -121.838 -2.40587e-006 7.59084 -19.1757 4.30733 7.48204 -0.561921 4.81842 -33.3223 5.77221 12.7392 16.105 -129.18 -1.32782e-005 -8.88931 -16.2564 2.75347 5.38674 33.5415 23.8291 -24.9058 -61.4586 
